<?xml version="1.0" standalone="no"?>
<!DOCTYPE svg PUBLIC "-//W3C//DTD SVG 1.0//EN" "http://www.w3.org/TR/2001/REC-SVG-20010904/DTD/svg10.dtd">
<svg xmlns="http://www.w3.org/2000/svg" xmlns:xlink="http://www.w3.org/1999/xlink" id="body_1" width="393" height="96">

<g transform="matrix(3 0 0 3 0 0)">
	<g>
        <path d="M0 16C 0 7.163444 7.163444 0 16 0C 24.836555 0 32 7.163444 32 16C 32 24.836555 24.836555 32 16 32C 7.163444 32 0 24.836555 0 16z" stroke="none" fill="#0138C7" fill-rule="nonzero" />
        <path d="M19.8406 28.4237C 19.4387 28.4237 19.0927 28.2817 18.8025 27.9979C 18.5346 27.7141 18.4006 27.2173 18.4006 26.5077C 18.4006 26.0997 18.5011 25.6207 18.702 25.0708C 19.1485 23.9531 19.6062 22.7557 20.075 21.4784C 20.5661 20.2011 21.0238 18.8972 21.4479 17.5667C 21.8944 16.2362 22.2516 14.95 22.5195 13.7082C 22.7874 12.4486 22.9213 11.2955 22.9213 10.2488C 22.9213 9.89404 22.899 9.54811 22.8544 9.21105C 22.832 8.87398 22.7762 8.55466 22.6869 8.25308C 20.4322 9.95613 18.3448 12.2712 16.4249 15.1984C 14.5273 18.1077 12.7972 21.4961 11.2345 25.3635C 10.9666 25.9489 10.6317 26.3569 10.2299 26.5876C 9.82801 26.8182 9.4485 26.9335 9.0913 26.9335C 8.77876 26.9335 8.47738 26.8359 8.18716 26.6408C 7.89694 26.4279 7.75183 26.1086 7.75183 25.6828C 7.75183 25.399 8.00857 24.8715 8.18716 24.3571C 8.36576 23.8249 8.43353 23.6793 8.71611 23.0016C 8.9987 22.3238 9.40385 20.6091 9.56012 19.2963C 9.73872 17.9836 9.82801 16.7684 9.82801 15.6507C 9.82801 15.1363 9.79453 14.6573 9.72755 14.2138C 9.6829 13.7525 9.60477 13.3534 9.49314 13.0163C 8.33227 13.992 7.24953 15.2161 6.24493 16.6885C 5.26265 18.1432 4.39199 19.7132 3.63296 21.3985C 2.87393 23.0661 2.23768 24.6982 1.72421 26.2948C 1.32237 27.448 0.67496 28.0245 -0.21802 28.0245C -0.575213 28.0245 -0.876594 27.8737 -1.12216 27.5721C -1.34541 27.2705 -1.45703 26.8182 -1.45703 26.215C -1.45703 25.6296 -1.27844 24.8401 -0.921243 23.8467C -0.564051 22.8532 -0.0840735 21.7622 0.518688 20.5736C 1.14378 19.385 1.83583 18.2053 2.59487 17.0345C 3.37623 15.8459 4.17991 14.7637 5.00592 13.788C 5.85425 12.7946 6.68026 11.9963 7.48394 11.3931C 8.28762 10.7899 9.01317 10.4883 9.66058 10.4883C 10.0847 10.4883 10.4643 10.5504 10.7991 10.6746C 11.134 10.7988 11.4242 11.056 11.6698 11.4463C 11.9154 11.8189 12.094 12.3954 12.2056 13.176C 12.3395 13.9388 12.4065 14.9589 12.4065 16.2362C 12.4065 16.4668 12.4065 16.7329 12.4065 17.0345C 13.0539 15.6152 13.8018 14.2404 14.6501 12.9099C 15.5208 11.5616 16.4361 10.3553 17.396 9.29088C 18.356 8.22647 19.3159 7.38381 20.2759 6.7629C 21.2358 6.142 22.14 5.83154 22.9883 5.83154C 23.9483 5.83154 24.7296 6.24844 25.3324 7.08223C 25.9352 7.89827 26.2365 9.18444 26.2365 10.9407C 26.2365 12.6083 26.0691 14.2315 25.7342 15.8104C 25.3994 17.3893 24.9752 18.8794 24.4617 20.2809C 23.9706 21.6824 23.4571 22.9597 22.9213 24.1128C 22.4079 25.2482 21.9614 26.2239 21.5819 27.0399C 21.3363 27.5367 21.0796 27.8915 20.8117 28.1043C 20.5438 28.3172 20.2201 28.4237 19.8406 28.4237z" stroke="none" fill="#FFFFFF" fill-rule="nonzero" />
	</g>
    <path d="M129.129 8.27433L129.129 6.45996L130.884 6.45996L130.884 8.27433L129.129 8.27433zM129.129 20.8073L129.129 10.1577L130.884 10.1577L130.884 20.8073L129.129 20.8073z" stroke="none" fill="#212833" fill-rule="nonzero" />
    <path d="M121.259 21.103C 120.464 21.103 119.797 20.9584 119.258 20.6691C 118.725 20.3733 118.321 19.9855 118.045 19.5056C 117.775 19.0257 117.641 18.4998 117.641 17.9279C 117.641 17.3691 117.746 16.8859 117.956 16.4783C 118.173 16.0642 118.475 15.7224 118.863 15.4528C 119.251 15.1767 119.715 14.9598 120.254 14.802C 120.76 14.664 121.325 14.5456 121.95 14.447C 122.581 14.3419 123.218 14.2465 123.863 14.1611C 124.507 14.0756 125.108 13.9934 125.667 13.9146L125.667 13.9146L125.036 14.2794C 125.056 13.3328 124.865 12.6327 124.464 12.1791C 124.07 11.7255 123.386 11.4987 122.413 11.4987C 121.769 11.4987 121.204 11.6466 120.717 11.9424C 120.237 12.2317 119.899 12.705 119.702 13.3624L119.702 13.3624L118.035 12.8595C 118.291 11.926 118.788 11.193 119.524 10.6605C 120.26 10.1281 121.23 9.86182 122.433 9.86182C 123.399 9.86182 124.228 10.036 124.918 10.3844C 125.615 10.7263 126.114 11.2456 126.417 11.9424C 126.568 12.2711 126.663 12.6294 126.703 13.0172C 126.742 13.3985 126.762 13.7995 126.762 14.2202L126.762 14.2202L126.762 20.8072L125.204 20.8072L125.204 18.2533L125.569 18.4899C 125.168 19.3511 124.606 20.0019 123.882 20.4423C 123.166 20.8828 122.292 21.103 121.259 21.103zM121.526 19.6338C 122.157 19.6338 122.702 19.522 123.163 19.2985C 123.629 19.0684 124.004 18.7693 124.287 18.4012C 124.569 18.0265 124.753 17.6189 124.839 17.1784C 124.938 16.8498 124.99 16.4849 124.997 16.0839C 125.01 15.6763 125.016 15.3641 125.016 15.1471L125.016 15.1471L125.628 15.4134C 125.056 15.4923 124.494 15.5679 123.942 15.6402C 123.389 15.7125 122.867 15.7914 122.374 15.8768C 121.881 15.9557 121.437 16.051 121.043 16.1628C 120.753 16.2548 120.481 16.3732 120.224 16.5178C 119.974 16.6624 119.771 16.8498 119.613 17.0798C 119.462 17.3033 119.386 17.5827 119.386 17.918C 119.386 18.2072 119.458 18.4833 119.603 18.7463C 119.754 19.0092 119.984 19.2229 120.293 19.3872C 120.609 19.5516 121.02 19.6338 121.526 19.6338z" stroke="none" fill="#212833" fill-rule="nonzero" />
    <path d="M113.629 20.8072L113.629 18.8745L115.562 18.8745L115.562 20.8072L113.629 20.8072z" stroke="none" fill="#212833" fill-rule="nonzero" />
    <path d="M111.547 20.807C 110.916 20.9319 110.292 20.9812 109.674 20.9549C 109.062 20.9352 108.517 20.8135 108.037 20.59C 107.557 20.36 107.192 20.005 106.942 19.5251C 106.732 19.1044 106.617 18.6803 106.597 18.253C 106.584 17.8192 106.577 17.3294 106.577 16.7838L106.577 16.7838L106.577 7.19922L108.333 7.19922L108.333 16.7049C 108.333 17.1388 108.336 17.5102 108.343 17.8192C 108.356 18.1281 108.425 18.3944 108.55 18.6179C 108.786 19.0386 109.161 19.2851 109.674 19.3574C 110.193 19.4298 110.818 19.41 111.547 19.2983L111.547 19.2983L111.547 20.807zM104.418 11.6069L104.418 10.1574L111.547 10.1574L111.547 11.6069L104.418 11.6069z" stroke="none" fill="#212833" fill-rule="nonzero" />
    <path d="M98.9564 21.103C 97.9112 21.103 96.9975 20.8729 96.2152 20.4128C 95.4395 19.946 94.8347 19.2985 94.4008 18.4702C 93.9669 17.6353 93.75 16.6624 93.75 15.5514C 93.75 14.3879 93.9637 13.3821 94.3909 12.5341C 94.8182 11.6795 95.4132 11.0221 96.1757 10.5619C 96.9449 10.0952 97.8455 9.86182 98.8776 9.86182C 99.9491 9.86182 100.86 10.1083 101.609 10.6014C 102.365 11.0944 102.93 11.7978 103.305 12.7116C 103.686 13.6253 103.851 14.7133 103.798 15.9754L103.798 15.9754L102.023 15.9754L102.023 15.3444C 102.003 14.0362 101.737 13.06 101.224 12.4157C 100.712 11.7649 99.9491 11.4395 98.9367 11.4395C 97.852 11.4395 97.027 11.7879 96.4617 12.4848C 95.8963 13.1816 95.6137 14.1808 95.6137 15.4824C 95.6137 16.738 95.8963 17.7109 96.4617 18.4012C 97.027 19.0914 97.8323 19.4365 98.8776 19.4365C 99.581 19.4365 100.192 19.2755 100.712 18.9534C 101.231 18.6313 101.639 18.1678 101.934 17.563L101.934 17.563L103.621 18.1448C 103.206 19.0848 102.582 19.8145 101.747 20.3339C 100.919 20.8466 99.9885 21.103 98.9564 21.103zM95.022 15.9754L95.022 14.5654L102.891 14.5654L102.891 15.9754L95.022 15.9754z" stroke="none" fill="#212833" fill-rule="nonzero" />
    <path d="M87.6986 21.103C 86.6534 21.103 85.7396 20.8729 84.9574 20.4128C 84.1817 19.946 83.5769 19.2985 83.143 18.4702C 82.7091 17.6353 82.4922 16.6624 82.4922 15.5514C 82.4922 14.3879 82.7058 13.3821 83.1331 12.5341C 83.5604 11.6795 84.1554 11.0221 84.9179 10.5619C 85.6871 10.0952 86.5877 9.86182 87.6197 9.86182C 88.6913 9.86182 89.6017 10.1083 90.3512 10.6014C 91.1071 11.0944 91.6725 11.7978 92.0472 12.7116C 92.4285 13.6253 92.5928 14.7133 92.5402 15.9754L92.5402 15.9754L90.7653 15.9754L90.7653 15.3444C 90.7456 14.0362 90.4793 13.06 89.9666 12.4157C 89.4538 11.7649 88.6913 11.4395 87.6789 11.4395C 86.5942 11.4395 85.7692 11.7879 85.2039 12.4848C 84.6385 13.1816 84.3559 14.1808 84.3559 15.4824C 84.3559 16.738 84.6385 17.7109 85.2039 18.4012C 85.7692 19.0914 86.5745 19.4365 87.6197 19.4365C 88.3231 19.4365 88.9345 19.2755 89.4538 18.9534C 89.9732 18.6313 90.3807 18.1678 90.6766 17.563L90.6766 17.563L92.3627 18.1448C 91.9486 19.0848 91.3241 19.8145 90.4892 20.3339C 89.6609 20.8466 88.7307 21.103 87.6986 21.103zM83.7642 15.9754L83.7642 14.5654L91.633 14.5654L91.633 15.9754L83.7642 15.9754z" stroke="none" fill="#212833" fill-rule="nonzero" />
    <path d="M79.2439 20.8075L79.2538 13.9937C 79.2538 13.1983 79.0401 12.5771 78.6128 12.1301C 78.1921 11.6765 77.6432 11.4497 76.9661 11.4497C 76.5717 11.4497 76.197 11.5417 75.842 11.7258C 75.487 11.9033 75.1977 12.1859 74.9742 12.5738C 74.7507 12.9551 74.639 13.4448 74.639 14.043L74.639 14.043L73.7121 13.6683C 73.6989 12.9124 73.8534 12.2517 74.1755 11.6863C 74.5042 11.1144 74.9512 10.6707 75.5166 10.3551C 76.0819 10.0396 76.7196 9.88184 77.4295 9.88184C 78.5405 9.88184 79.4148 10.2204 80.0525 10.8975C 80.6901 11.568 81.009 12.4719 81.009 13.6092L81.009 13.6092L80.9991 20.8075L79.2439 20.8075zM66.5039 20.8075L66.5039 10.1579L68.0718 10.1579L68.0718 13.0077L68.269 13.0077L68.269 20.8075L66.5039 20.8075zM72.8838 20.8075L72.8936 14.0628C 72.8936 13.2476 72.6833 12.61 72.2625 12.1498C 71.8418 11.6831 71.2831 11.4497 70.5862 11.4497C 69.896 11.4497 69.3372 11.6863 68.9099 12.1597C 68.4826 12.633 68.269 13.2608 68.269 14.043L68.269 14.043L67.3421 13.4908C 67.3421 12.8006 67.5064 12.1827 67.8351 11.637C 68.1638 11.0914 68.6108 10.6641 69.1762 10.3551C 69.7415 10.0396 70.3824 9.88184 71.099 9.88184C 71.8155 9.88184 72.44 10.033 72.9725 10.3354C 73.505 10.6378 73.9159 11.0717 74.2051 11.637C 74.4944 12.1958 74.639 12.863 74.639 13.6388L74.639 13.6388L74.6291 20.8075L72.8838 20.8075z" stroke="none" fill="#212833" fill-rule="nonzero" />
    <path d="M57.7747 25.5399L59.8356 19.939L59.8652 21.5956L55.2109 10.1572L57.0549 10.1572L60.7033 19.3572L60.0723 19.3572L63.4939 10.1572L65.2787 10.1572L59.4806 25.5399L57.7747 25.5399z" stroke="none" fill="#212833" fill-rule="nonzero" />
    <path d="M52.74 20.8075L52.7499 13.9937C 52.7499 13.1983 52.5362 12.5771 52.1089 12.1301C 51.6882 11.6765 51.1393 11.4497 50.4622 11.4497C 50.0678 11.4497 49.6931 11.5417 49.3381 11.7258C 48.9831 11.9033 48.6938 12.1859 48.4703 12.5738C 48.2468 12.9551 48.1351 13.4448 48.1351 14.043L48.1351 14.043L47.2082 13.6683C 47.195 12.9124 47.3495 12.2517 47.6716 11.6863C 48.0003 11.1144 48.4473 10.6707 49.0127 10.3551C 49.578 10.0396 50.2157 9.88184 50.9256 9.88184C 52.0366 9.88184 52.9109 10.2204 53.5486 10.8975C 54.1862 11.568 54.5051 12.4719 54.5051 13.6092L54.5051 13.6092L54.4952 20.8075L52.74 20.8075zM40 20.8075L40 10.1579L41.5678 10.1579L41.5678 13.0077L41.7651 13.0077L41.7651 20.8075L40 20.8075zM46.3799 20.8075L46.3897 14.0628C 46.3897 13.2476 46.1794 12.61 45.7586 12.1498C 45.3379 11.6831 44.7791 11.4497 44.0823 11.4497C 43.3921 11.4497 42.8333 11.6863 42.406 12.1597C 41.9787 12.633 41.7651 13.2608 41.7651 14.043L41.7651 14.043L40.8382 13.4908C 40.8382 12.8006 41.0025 12.1827 41.3312 11.637C 41.6599 11.0914 42.1069 10.6641 42.6722 10.3551C 43.2376 10.0396 43.8785 9.88184 44.5951 9.88184C 45.3116 9.88184 45.9361 10.033 46.4686 10.3354C 47.0011 10.6378 47.4119 11.0717 47.7012 11.637C 47.9904 12.1958 48.1351 12.863 48.1351 13.6388L48.1351 13.6388L48.1252 20.8075L46.3799 20.8075z" stroke="none" fill="#212833" fill-rule="nonzero" />
</g>
</svg>
